<svg width="301" height="58" viewBox="0 0 301 58" fill="none" xmlns="http://www.w3.org/2000/svg">
<path d="M3.95455 32.6364L29.3182 42.7955V34.2045L13.4318 28.7159V28.375L29.3182 22.8864V14.2955L3.95455 24.4545V32.6364ZM61.7834 32.6364V24.4545L36.4198 14.2955V22.8864L52.3062 28.375V28.7159L36.4198 34.2045V42.7955L61.7834 32.6364ZM99.7714 24.1818C99.0214 15.5227 92.6805 10.6136 83.885 10.6136C74.476 10.6136 67.0441 16.8864 67.0441 28.5455C67.0441 40.1534 74.2714 46.4773 83.885 46.4773C94.1123 46.4773 99.2941 39.3864 99.7714 33.4545L90.1578 33.3864C89.6805 36.3693 87.5669 38.2273 84.0896 38.2273C79.4703 38.2273 76.7941 34.9545 76.7941 28.5455C76.7941 22.4773 79.385 18.8636 84.1578 18.8636C87.8055 18.8636 89.885 21.0114 90.1578 24.1818H99.7714ZM116.005 46.4773C124.528 46.4773 129.573 41.0227 129.573 32.9773C129.573 24.9318 124.528 19.4773 116.005 19.4773C107.482 19.4773 102.437 24.9318 102.437 32.9773C102.437 41.0227 107.482 46.4773 116.005 46.4773ZM116.073 39.5227C113.551 39.5227 112.051 37.017 112.051 32.9091C112.051 28.8011 113.551 26.2955 116.073 26.2955C118.46 26.2955 119.96 28.8011 119.96 32.9091C119.96 37.017 118.46 39.5227 116.073 39.5227ZM142.053 46.3409C145.735 46.3409 148.257 44.3636 149.348 41.7045H149.553V46H158.894V11.0909H149.485V24.3864H149.348C148.325 21.7273 145.871 19.4773 141.985 19.4773C136.803 19.4773 131.757 23.4318 131.757 32.9091C131.757 41.9773 136.462 46.3409 142.053 46.3409ZM145.53 39.1136C142.939 39.1136 141.439 36.7955 141.439 32.9091C141.439 29.0227 142.939 26.7045 145.53 26.7045C148.121 26.7045 149.689 29.0227 149.689 32.9091C149.689 36.7273 148.121 39.1136 145.53 39.1136ZM175.242 46.4773C182.504 46.4773 187.174 43 188.061 37.5455H179.47C178.924 39.0284 177.373 39.8636 175.447 39.8636C172.652 39.8636 171.015 38.0227 171.015 35.5V35.0909H188.061V32.9091C188.061 24.5739 182.947 19.4773 175.038 19.4773C166.924 19.4773 161.742 24.8636 161.742 32.9773C161.742 41.4489 166.856 46.4773 175.242 46.4773ZM171.015 29.9091C171.066 27.642 172.941 26.0909 175.242 26.0909C177.578 26.0909 179.35 27.6591 179.402 29.9091H171.015ZM193.743 46H205.999C212.749 46 216.243 42.3011 216.243 36.9489C216.243 31.8693 213.039 28.5114 209.442 28.2216V28.017C212.698 27.1818 214.88 24.3352 214.88 20.0909C214.88 14.7216 211.419 11.0909 205.078 11.0909H193.743V46ZM195.874 44.0227V29.2443H206.067C210.874 29.2443 214.181 32.5511 214.181 36.9489C214.181 41.108 211.249 44.0227 205.999 44.0227H195.874ZM195.874 27.3011V13.0682H205.078C210.022 13.0682 212.817 15.7614 212.817 20.0909C212.817 24.0966 210.26 27.3011 205.811 27.3011H195.874ZM233.295 46.5455C238.46 46.5455 241.63 43.5284 242.824 40.8864L240.931 40.1193C239.96 42.0625 237.556 44.6193 233.295 44.6193C227.346 44.6193 223.784 39.8125 223.699 33.3693H243.676V32.0739C243.676 24.3011 238.664 19.4261 232.801 19.4261C226.306 19.4261 221.636 25.2045 221.636 33.0284C221.636 40.8352 226.187 46.5455 233.295 46.5455ZM223.733 31.4773C224.142 25.767 227.841 21.3693 232.801 21.3693C237.778 21.3693 241.596 25.8011 241.596 31.4773H223.733ZM231.761 16.0852H233.67L229.102 8.55114H226.63L231.761 16.0852ZM260.229 46.5455C265.394 46.5455 268.564 43.5284 269.758 40.8864L267.865 40.1193C266.894 42.0625 264.49 44.6193 260.229 44.6193C254.28 44.6193 250.718 39.8125 250.633 33.3693H270.61V32.0739C270.61 24.3011 265.598 19.4261 259.735 19.4261C253.24 19.4261 248.57 25.2045 248.57 33.0284C248.57 40.8352 253.121 46.5455 260.229 46.5455ZM250.667 31.4773C251.076 25.767 254.775 21.3693 259.735 21.3693C264.712 21.3693 268.53 25.8011 268.53 31.4773H250.667ZM279.032 29.0227C279.032 24.4545 282.22 21.4034 286.635 21.4034C290.998 21.4034 293.896 24.3352 293.896 28.8182V46H295.959V28.733C295.959 22.9886 292.311 19.4773 287.027 19.4773C283.243 19.4773 280.464 21.233 279.237 23.9602H279.032V11.0909H276.953V46H279.032V29.0227Z" fill="white"/>
</svg>
