<svg width="366" height="331" viewBox="0 0 366 331" fill="none" xmlns="http://www.w3.org/2000/svg">
<path d="M28.5499 7.69999L12.7499 21.5L28.5499 35.3L24.5999 42.2L0.899902 21.5L24.5999 0.799988L28.5499 7.69999ZM36.4499 35.3L52.2499 21.5L36.4499 7.69999L40.3999 0.799988L64.0999 21.5L40.3999 42.2L36.4499 35.3Z" fill="white" fill-opacity="0.3"/>
<path d="M75.5499 294.6L63.7499 305L75.5499 315.4L72.5999 320.6L54.8999 305L72.5999 289.4L75.5499 294.6ZM81.4499 315.4L93.2499 305L81.4499 294.6L84.3999 289.4L102.1 305L84.3999 320.6L81.4499 315.4Z" fill="white" fill-opacity="0.2"/>
<path d="M344 59.5L336 66.5L344 73.5L342 77L330 66.5L342 56L344 59.5ZM348 73.5L356 66.5L348 59.5L350 56L362 66.5L350 77L348 73.5Z" fill="white" fill-opacity="0.2"/>
</svg>
