<svg width="32" height="32" viewBox="0 0 32 32" fill="none" xmlns="http://www.w3.org/2000/svg">
<path d="M3.55607 11.8489C3.55607 11.6049 3.48382 11.3664 3.34845 11.1634C3.21307 10.9604 3.02062 10.8021 2.79537 10.7083C2.57012 10.6145 2.32215 10.5895 2.08272 10.6365C1.84329 10.6835 1.62313 10.8003 1.44998 10.9722C1.27684 11.1441 1.15847 11.3634 1.1098 11.6025C1.06112 11.8416 1.08433 12.0897 1.17648 12.3156C1.26864 12.5415 1.42562 12.7351 1.62763 12.8719C1.82964 13.0088 2.06764 13.0827 2.31163 13.0845C2.47463 13.0857 2.63625 13.0546 2.78718 12.993C2.93812 12.9314 3.07537 12.8406 3.19105 12.7258C3.30673 12.6109 3.39853 12.4743 3.46118 12.3238C3.52383 12.1733 3.55608 12.0119 3.55607 11.8489Z" fill="#111111"/>
<path d="M28.2763 14.0801C26.8739 14.3418 25.5074 14.7684 24.2052 15.3512C23.1204 15.8797 22.0851 16.5044 21.1119 17.2179C20.5169 16.4385 19.9961 15.6053 19.5563 14.729C18.5322 12.526 17.6995 10.2391 17.0675 7.89341C17.0154 7.69948 16.8992 7.52891 16.7377 7.40947C16.5763 7.29003 16.3792 7.22875 16.1786 7.23563C15.9779 7.22875 15.7808 7.29003 15.6194 7.40947C15.458 7.52891 15.3418 7.69948 15.2897 7.89341C14.6616 10.2404 13.8288 12.5277 12.8008 14.729C12.3614 15.6075 11.8375 16.441 11.2363 17.2179C10.2631 16.5044 9.22786 15.8797 8.14301 15.3512C6.83994 14.7708 5.4737 14.3442 4.0719 14.0801C3.90611 14.0474 3.73443 14.0626 3.577 14.124C3.41957 14.1854 3.2829 14.2904 3.18301 14.4267C3.08411 14.5594 3.02422 14.7171 3.01008 14.882C2.99595 15.0469 3.02813 15.2125 3.10301 15.3601C4.97955 19.2666 6.27617 23.4259 6.9519 27.7067C6.98788 27.9154 7.09719 28.1045 7.26016 28.2397C7.42312 28.375 7.62902 28.4476 7.84079 28.4445H24.5519C24.7637 28.4476 24.9696 28.375 25.1325 28.2397C25.2955 28.1045 25.4048 27.9154 25.4408 27.7067C26.097 23.4292 27.3726 19.27 29.2275 15.3601C29.3023 15.2125 29.3345 15.0469 29.3204 14.882C29.3062 14.7171 29.2464 14.5594 29.1475 14.4267C29.049 14.2935 28.9152 14.1905 28.7613 14.1292C28.6074 14.068 28.4394 14.0509 28.2763 14.0801ZM23.8141 26.6667H8.56967C7.94651 23.0969 6.93302 19.6063 5.54745 16.2579C6.18232 16.4448 6.80314 16.6765 7.40523 16.9512C8.62532 17.5442 9.77354 18.2748 10.8275 19.129C11.0034 19.2789 11.2308 19.3544 11.4614 19.3395C11.6921 19.3245 11.9079 19.2203 12.063 19.049C12.9994 17.9675 13.7967 16.773 14.4363 15.4934C15.1165 14.0819 15.7102 12.6303 16.2141 11.1467C16.7143 12.6317 17.3081 14.0835 17.9919 15.4934C18.6337 16.7696 19.4277 17.9635 20.3563 19.049C20.5118 19.2229 20.7294 19.3288 20.9622 19.3438C21.195 19.3588 21.4244 19.2816 21.6008 19.129C22.6509 18.2696 23.7998 17.5386 25.023 16.9512C25.6239 16.6736 26.2449 16.4418 26.8808 16.2579C25.476 19.6031 24.4474 23.0942 23.8141 26.6667Z" fill="#111111"/>
<path d="M30.0715 13.0845C30.7539 13.0845 31.3071 12.5313 31.3071 11.849C31.3071 11.1666 30.7539 10.6134 30.0715 10.6134C29.3891 10.6134 28.8359 11.1666 28.8359 11.849C28.8359 12.5313 29.3891 13.0845 30.0715 13.0845Z" fill="#111111"/>
<path d="M16.1964 5.68006C16.4411 5.68182 16.6809 5.61086 16.8852 5.47617C17.0896 5.34148 17.2493 5.14913 17.3442 4.92353C17.4391 4.69792 17.4648 4.44922 17.4182 4.20896C17.3715 3.9687 17.2545 3.74772 17.0821 3.57403C16.9097 3.40034 16.6895 3.28178 16.4496 3.23338C16.2097 3.18499 15.9608 3.20893 15.7345 3.30218C15.5082 3.39543 15.3148 3.55378 15.1786 3.75716C15.0424 3.96053 14.9697 4.19976 14.9697 4.44451C14.9697 4.77066 15.0987 5.08359 15.3285 5.31505C15.5583 5.54651 15.8702 5.67772 16.1964 5.68006Z" fill="#111111"/>
<path d="M16.2055 23.4134C16.0096 23.4116 15.8176 23.4682 15.654 23.5759C15.4904 23.6837 15.3625 23.8377 15.2868 24.0183C15.211 24.199 15.1907 24.3981 15.2285 24.5903C15.2663 24.7825 15.3604 24.9592 15.4989 25.0977C15.6375 25.2362 15.8141 25.3303 16.0063 25.3681C16.1985 25.4059 16.3976 25.3856 16.5783 25.3099C16.7589 25.2341 16.9129 25.1062 17.0207 24.9426C17.1284 24.779 17.185 24.587 17.1833 24.3911C17.1833 24.1318 17.0802 23.8831 16.8969 23.6998C16.7135 23.5164 16.4648 23.4134 16.2055 23.4134Z" fill="#111111"/>
<path d="M11.183 23.4134C10.9871 23.4116 10.7951 23.4682 10.6315 23.5759C10.4679 23.6837 10.3401 23.8377 10.2643 24.0183C10.1885 24.199 10.1682 24.3981 10.206 24.5903C10.2438 24.7825 10.338 24.9592 10.4765 25.0977C10.615 25.2362 10.7916 25.3303 10.9838 25.3681C11.1761 25.4059 11.3752 25.3856 11.5558 25.3099C11.7365 25.2341 11.8905 25.1062 11.9982 24.9426C12.106 24.779 12.1626 24.587 12.1608 24.3911C12.1608 24.1318 12.0578 23.8831 11.8744 23.6998C11.691 23.5164 11.4423 23.4134 11.183 23.4134Z" fill="#111111"/>
<path d="M21.2358 23.4134C21.0399 23.4116 20.8479 23.4682 20.6843 23.5759C20.5207 23.6837 20.3928 23.8377 20.317 24.0183C20.2413 24.199 20.221 24.3981 20.2588 24.5903C20.2966 24.7825 20.3907 24.9592 20.5292 25.0977C20.6677 25.2362 20.8444 25.3303 21.0366 25.3681C21.2288 25.4059 21.4279 25.3856 21.6086 25.3099C21.7892 25.2341 21.9432 25.1062 22.051 24.9426C22.1587 24.779 22.2153 24.587 22.2135 24.3911C22.2135 24.1318 22.1105 23.8831 21.9271 23.6998C21.7438 23.5164 21.4951 23.4134 21.2358 23.4134Z" fill="#111111"/>
</svg>
