<svg width="30" height="30" viewBox="0 0 30 30" fill="none" xmlns="http://www.w3.org/2000/svg">
<path d="M15.5737 2.07562C15.4074 1.94592 15.2025 1.87549 14.9916 1.87549C14.7806 1.87549 14.5757 1.94592 14.4094 2.07562L0.9375 12.5803L2.10281 14.0541L3.75 12.7697V24.375C3.75099 24.872 3.94885 25.3483 4.30027 25.6997C4.65169 26.0511 5.12802 26.249 5.625 26.25H24.375C24.872 26.249 25.3483 26.0511 25.6997 25.6997C26.0511 25.3483 26.249 24.872 26.25 24.375V12.7781L27.8972 14.0625L29.0625 12.5887L15.5737 2.07562ZM16.875 24.375H13.125V16.875H16.875V24.375ZM18.75 24.375V16.875C18.7495 16.3779 18.5518 15.9012 18.2003 15.5497C17.8488 15.1982 17.3721 15.0005 16.875 15H13.125C12.6279 15.0005 12.1512 15.1982 11.7997 15.5497C11.4482 15.9012 11.2505 16.3779 11.25 16.875V24.375H5.625V11.3081L15 4.00499L24.375 11.3175V24.375H18.75Z" fill="white"/>
</svg>
