<svg width="35" height="35" viewBox="0 0 35 35" fill="none" xmlns="http://www.w3.org/2000/svg">
<path d="M17.5001 33.3278C18.1125 33.3136 18.7002 33.0834 19.1593 32.6777C19.6183 32.2721 19.9191 31.7171 20.0084 31.1111H14.8945C14.9864 31.7336 15.3012 32.3016 15.7805 32.7093C16.2598 33.1171 16.8709 33.3368 17.5001 33.3278V33.3278Z" fill="white"/>
<path d="M31.6065 27.057C30.669 26.2212 29.8482 25.263 29.1662 24.2083C28.4217 22.7525 27.9755 21.1626 27.8537 19.532V14.7292C27.8498 14.1458 27.7978 13.5637 27.6982 12.9889C26.933 12.8359 26.1975 12.5602 25.5204 12.1722C25.7785 13.0033 25.9096 13.8686 25.9093 14.7389V19.5417C26.0285 21.5309 26.5756 23.4709 27.5135 25.2292C28.1847 26.2928 28.9811 27.272 29.8857 28.1458H4.98707C5.89163 27.272 6.68806 26.2928 7.35929 25.2292C8.29711 23.4709 8.84429 21.5309 8.96345 19.5417V14.7292C8.95834 13.604 9.17521 12.4889 9.60166 11.4477C10.0281 10.4064 10.6558 9.45954 11.4487 8.66121C12.2416 7.86289 13.1842 7.22881 14.2225 6.79528C15.2608 6.36175 16.3744 6.13728 17.4996 6.13474C19.1463 6.13605 20.756 6.62304 22.1273 7.53474C21.9762 6.97958 21.8913 6.40847 21.8746 5.83335V5.22085C20.8594 4.72147 19.7689 4.39299 18.6468 4.24862V3.02362C18.6468 2.6794 18.51 2.34927 18.2666 2.10586C18.0232 1.86245 17.6931 1.72571 17.3489 1.72571C17.0046 1.72571 16.6745 1.86245 16.4311 2.10586C16.1877 2.34927 16.051 2.6794 16.051 3.02362V4.29724C13.5385 4.65166 11.239 5.9031 9.57714 7.8205C7.91527 9.73791 7.00319 12.1918 7.00929 14.7292V19.532C6.88752 21.1626 6.44129 22.7525 5.69679 24.2083C5.02681 25.2606 4.2192 26.2186 3.2954 27.057C3.19169 27.1481 3.10858 27.2602 3.05158 27.3859C2.99459 27.5117 2.96502 27.6481 2.96484 27.7861V29.1083C2.96484 29.3662 3.06727 29.6135 3.2496 29.7958C3.43193 29.9781 3.67922 30.0806 3.93707 30.0806H30.9648C31.2227 30.0806 31.47 29.9781 31.6523 29.7958C31.8346 29.6135 31.9371 29.3662 31.9371 29.1083V27.7861C31.9369 27.6481 31.9073 27.5117 31.8503 27.3859C31.7933 27.2602 31.7102 27.1481 31.6065 27.057V27.057Z" fill="white"/>
<path d="M29.1668 10.6945C31.8515 10.6945 34.0279 8.51806 34.0279 5.83334C34.0279 3.14862 31.8515 0.972229 29.1668 0.972229C26.4821 0.972229 24.3057 3.14862 24.3057 5.83334C24.3057 8.51806 26.4821 10.6945 29.1668 10.6945Z" fill="white"/>
</svg>
