<svg width="30" height="30" viewBox="0 0 30 30" fill="none" xmlns="http://www.w3.org/2000/svg">
<path d="M14.2492 2.62558L2.75856 14.1162C2.52422 14.3506 2.39258 14.6685 2.39258 15C2.39258 15.3314 2.52422 15.6493 2.75856 15.8837L14.2498 27.375C14.4842 27.6093 14.8021 27.7409 15.1336 27.7409C15.465 27.7409 15.7829 27.6093 16.0173 27.375L27.5079 15.8843C27.7423 15.6499 27.8739 15.332 27.8739 15.0006C27.8739 14.6691 27.7423 14.3512 27.5079 14.1168L16.0167 2.62496C15.7823 2.39062 15.4644 2.25897 15.1329 2.25897C14.8015 2.25897 14.4836 2.39062 14.2492 2.62496V2.62558Z" stroke="white" stroke-width="4" stroke-linejoin="round"/>
<path d="M11.25 15H18.75" stroke="white" stroke-width="4" stroke-linecap="round"/>
<path d="M15 11.25V18.75" stroke="white" stroke-width="4" stroke-linecap="round"/>
</svg>
