<svg width="35" height="35" viewBox="0 0 35 35" fill="none" xmlns="http://www.w3.org/2000/svg">
<path fill-rule="evenodd" clip-rule="evenodd" d="M10.7989 25.3123C15.79 24.5832 19.2266 24.6459 24.2243 25.3379C24.5862 25.3903 24.917 25.572 25.1554 25.8493C25.3938 26.1266 25.5239 26.4808 25.5215 26.8465C25.5215 27.1965 25.4012 27.5363 25.1839 27.8017C24.8052 28.2645 24.4172 28.7196 24.0201 29.1667H25.9459C26.0669 29.0223 26.1887 28.875 26.3119 28.7256C26.7444 28.1952 26.9804 27.5316 26.9798 26.8472C26.9798 25.3707 25.9021 24.0983 24.4241 23.8941C19.3083 23.1861 15.7324 23.1183 10.5882 23.87C9.09482 24.0881 8.02148 25.3801 8.02148 26.8669C8.02148 27.5268 8.23659 28.1794 8.64419 28.7081C8.76451 28.8641 8.88336 29.0172 9.00148 29.1674H10.8805C10.5112 28.7252 10.1509 28.2755 9.79992 27.8185C9.59135 27.5449 9.47884 27.2102 9.47982 26.8662C9.47982 26.0809 10.0442 25.4224 10.7989 25.3123Z" fill="white"/>
<path fill-rule="evenodd" clip-rule="evenodd" d="M17.5003 18.2292C18.0749 18.2292 18.6438 18.116 19.1746 17.8962C19.7054 17.6763 20.1877 17.3541 20.5939 16.9478C21.0002 16.5415 21.3224 16.0592 21.5423 15.5284C21.7622 14.9976 21.8753 14.4287 21.8753 13.8542C21.8753 13.2797 21.7622 12.7108 21.5423 12.18C21.3224 11.6492 21.0002 11.1669 20.5939 10.7606C20.1877 10.3544 19.7054 10.0321 19.1746 9.81223C18.6438 9.59237 18.0749 9.47921 17.5003 9.47921C16.34 9.47921 15.2272 9.94014 14.4067 10.7606C13.5863 11.5811 13.1253 12.6939 13.1253 13.8542C13.1253 15.0145 13.5863 16.1273 14.4067 16.9478C15.2272 17.7683 16.34 18.2292 17.5003 18.2292V18.2292ZM17.5003 19.6875C19.0474 19.6875 20.5312 19.073 21.6251 17.979C22.7191 16.885 23.3337 15.4013 23.3337 13.8542C23.3337 12.3071 22.7191 10.8234 21.6251 9.72942C20.5312 8.63546 19.0474 8.02087 17.5003 8.02087C15.9532 8.02087 14.4695 8.63546 13.3755 9.72942C12.2816 10.8234 11.667 12.3071 11.667 13.8542C11.667 15.4013 12.2816 16.885 13.3755 17.979C14.4695 19.073 15.9532 19.6875 17.5003 19.6875V19.6875Z" fill="white"/>
<path fill-rule="evenodd" clip-rule="evenodd" d="M17.5003 30.625C24.749 30.625 30.6253 24.7487 30.6253 17.5C30.6253 10.2514 24.749 4.37502 17.5003 4.37502C10.2517 4.37502 4.37533 10.2514 4.37533 17.5C4.37533 24.7487 10.2517 30.625 17.5003 30.625ZM17.5003 32.0834C25.5547 32.0834 32.0837 25.5544 32.0837 17.5C32.0837 9.44565 25.5547 2.91669 17.5003 2.91669C9.44595 2.91669 2.91699 9.44565 2.91699 17.5C2.91699 25.5544 9.44595 32.0834 17.5003 32.0834Z" fill="white"/>
</svg>
